<svg xmlns="http://www.w3.org/2000/svg" viewBox="0 0 800 600">
  <!-- Background -->
  <rect width="800" height="600" fill="#f8f9fa" />
  
  <!-- Title -->
  <text x="400" y="40" font-family="Arial, sans-serif" font-size="24" font-weight="bold" text-anchor="middle">Kylix Layered Architecture</text>
  
  <!-- Layers Background -->
  <rect x="100" y="100" width="600" height="100" fill="#bbdefb" stroke="#2196f3" stroke-width="2" rx="10" />
  <rect x="100" y="210" width="600" height="100" fill="#c8e6c9" stroke="#4caf50" stroke-width="2" rx="10" />
  <rect x="100" y="320" width="600" height="100" fill="#ffecb3" stroke="#ffc107" stroke-width="2" rx="10" />
  <rect x="100" y="430" width="600" height="100" fill="#ffccbc" stroke="#ff5722" stroke-width="2" rx="10" />
  
  <!-- Layer Labels -->
  <text x="150" y="140" font-family="Arial, sans-serif" font-size="20" font-weight="bold" fill="#0d47a1">Query Layer</text>
  <text x="150" y="250" font-family="Arial, sans-serif" font-size="20" font-weight="bold" fill="#1b5e20">Consensus Layer</text>
  <text x="150" y="360" font-family="Arial, sans-serif" font-size="20" font-weight="bold" fill="#ff6f00">Network Layer</text>
  <text x="150" y="470" font-family="Arial, sans-serif" font-size="20" font-weight="bold" fill="#bf360c">Storage Layer</text>
  
  <!-- Component Boxes - Query Layer -->
  <rect x="150" y="155" width="120" height="30" fill="#e3f2fd" stroke="#1e88e5" stroke-width="1" rx="5" />
  <text x="210" y="175" font-family="Arial, sans-serif" font-size="12" text-anchor="middle">SPARQL Parser</text>
  
  <rect x="290" y="155" width="120" height="30" fill="#e3f2fd" stroke="#1e88e5" stroke-width="1" rx="5" />
  <text x="350" y="175" font-family="Arial, sans-serif" font-size="12" text-anchor="middle">Query Optimizer</text>
  
  <rect x="430" y="155" width="120" height="30" fill="#e3f2fd" stroke="#1e88e5" stroke-width="1" rx="5" />
  <text x="490" y="175" font-family="Arial, sans-serif" font-size="12" text-anchor="middle">Query Executor</text>
  
  <rect x="570" y="155" width="120" height="30" fill="#e3f2fd" stroke="#1e88e5" stroke-width="1" rx="5" />
  <text x="630" y="175" font-family="Arial, sans-serif" font-size="12" text-anchor="middle">Aggregator</text>
  
  <!-- Component Boxes - Consensus Layer -->
  <rect x="150" y="265" width="150" height="30" fill="#e8f5e9" stroke="#43a047" stroke-width="1" rx="5" />
  <text x="225" y="285" font-family="Arial, sans-serif" font-size="12" text-anchor="middle">Validator Coordinator</text>
  
  <rect x="320" y="265" width="150" height="30" fill="#e8f5e9" stroke="#43a047" stroke-width="1" rx="5" />
  <text x="395" y="285" font-family="Arial, sans-serif" font-size="12" text-anchor="middle">Transaction Verifier</text>
  
  <rect x="490" y="265" width="150" height="30" fill="#e8f5e9" stroke="#43a047" stroke-width="1" rx="5" />
  <text x="565" y="285" font-family="Arial, sans-serif" font-size="12" text-anchor="middle">Performance Tracker</text>
  
  <!-- Component Boxes - Network Layer -->
  <rect x="150" y="375" width="130" height="30" fill="#fff8e1" stroke="#ffb300" stroke-width="1" rx="5" />
  <text x="215" y="395" font-family="Arial, sans-serif" font-size="12" text-anchor="middle">Connection Manager</text>
  
  <rect x="300" y="375" width="130" height="30" fill="#fff8e1" stroke="#ffb300" stroke-width="1" rx="5" />
  <text x="365" y="395" font-family="Arial, sans-serif" font-size="12" text-anchor="middle">Transaction Broadcaster</text>
  
  <rect x="450" y="375" width="130" height="30" fill="#fff8e1" stroke="#ffb300" stroke-width="1" rx="5" />
  <text x="515" y="395" font-family="Arial, sans-serif" font-size="12" text-anchor="middle">Latency Monitor</text>
  
  <!-- Component Boxes - Storage Layer -->
  <rect x="150" y="485" width="120" height="30" fill="#fbe9e7" stroke="#e64a19" stroke-width="1" rx="5" />
  <text x="210" y="505" font-family="Arial, sans-serif" font-size="12" text-anchor="middle">DAG Engine</text>
  
  <rect x="290" y="485" width="120" height="30" fill="#fbe9e7" stroke="#e64a19" stroke-width="1" rx="5" />
  <text x="350" y="505" font-family="Arial, sans-serif" font-size="12" text-anchor="middle">Persistent Storage</text>
  
  <rect x="430" y="485" width="120" height="30" fill="#fbe9e7" stroke="#e64a19" stroke-width="1" rx="5" />
  <text x="490" y="505" font-family="Arial, sans-serif" font-size="12" text-anchor="middle">Coordinator</text>
  
  <rect x="570" y="485" width="120" height="30" fill="#fbe9e7" stroke="#e64a19" stroke-width="1" rx="5" />
  <text x="630" y="505" font-family="Arial, sans-serif" font-size="12" text-anchor="middle">Cache Manager</text>
  
  <!-- Connection Lines between Layers -->
  <!-- Query to Consensus -->
  <line x1="350" y1="185" x2="350" y2="265" stroke="#424242" stroke-width="1.5" stroke-dasharray="4,2" />
  <line x1="490" y1="185" x2="390" y2="265" stroke="#424242" stroke-width="1.5" stroke-dasharray="4,2" />
  
  <!-- Consensus to Network -->
  <line x1="225" y1="295" x2="225" y2="375" stroke="#424242" stroke-width="1.5" stroke-dasharray="4,2" />
  <line x1="395" y1="295" x2="360" y2="375" stroke="#424242" stroke-width="1.5" stroke-dasharray="4,2" />
  
  <!-- Network to Storage -->
  <line x1="215" y1="405" x2="215" y2="485" stroke="#424242" stroke-width="1.5" stroke-dasharray="4,2" />
  <line x1="365" y1="405" x2="350" y2="485" stroke="#424242" stroke-width="1.5" stroke-dasharray="4,2" />
  
  <!-- Legend -->
  <rect x="620" y="535" width="170" height="50" fill="white" stroke="#757575" stroke-width="1" rx="5" />
  <text x="705" y="555" font-family="Arial, sans-serif" font-size="14" font-weight="bold" text-anchor="middle">Legend</text>
  <line x1="640" y1="570" x2="670" y2="570" stroke="#424242" stroke-width="1.5" stroke-dasharray="4,2" />
  <text x="725" y="575" font-family="Arial, sans-serif" font-size="12" text-anchor="middle">Component Interaction</text>
</svg>