<svg xmlns="http://www.w3.org/2000/svg" viewBox="0 0 900 500">
  <!-- Background -->
  <rect width="900" height="500" fill="#f8f9fa" />
  
  <!-- Title -->
  <text x="450" y="40" font-family="Arial, sans-serif" font-size="24" font-weight="bold" text-anchor="middle">Kylix Proof of Authority Consensus Flow</text>
  
  <!-- Validator Boxes -->
  <rect x="100" y="100" width="140" height="70" fill="#c8e6c9" stroke="#4caf50" stroke-width="3" rx="10" />
  <text x="170" y="130" font-family="Arial, sans-serif" font-size="18" font-weight="bold" text-anchor="middle">Validator 1</text>
  <text x="170" y="155" font-family="Arial, sans-serif" font-size="14" text-anchor="middle">(Current Turn)</text>
  
  <rect x="100" y="200" width="140" height="50" fill="#e8f5e9" stroke="#81c784" stroke-width="1" rx="10" />
  <text x="170" y="230" font-family="Arial, sans-serif" font-size="18" font-weight="bold" text-anchor="middle">Validator 2</text>
  
  <rect x="100" y="280" width="140" height="50" fill="#e8f5e9" stroke="#81c784" stroke-width="1" rx="10" />
  <text x="170" y="310" font-family="Arial, sans-serif" font-size="18" font-weight="bold" text-anchor="middle">Validator 3</text>
  
  <rect x="100" y="360" width="140" height="50" fill="#e8f5e9" stroke="#81c784" stroke-width="1" rx="10" />
  <text x="170" y="390" font-family="Arial, sans-serif" font-size="18" font-weight="bold" text-anchor="middle">Validator 4</text>
  
  <!-- Validator Coordinator -->
  <rect x="350" y="100" width="180" height="70" fill="#bbdefb" stroke="#2196f3" stroke-width="3" rx="10" />
  <text x="440" y="135" font-family="Arial, sans-serif" font-size="18" font-weight="bold" text-anchor="middle">Validator</text>
  <text x="440" y="160" font-family="Arial, sans-serif" font-size="18" font-weight="bold" text-anchor="middle">Coordinator</text>
  
  <!-- Blockchain Server -->
  <rect x="350" y="230" width="180" height="70" fill="#ffecb3" stroke="#ffc107" stroke-width="3" rx="10" />
  <text x="440" y="265" font-family="Arial, sans-serif" font-size="18" font-weight="bold" text-anchor="middle">Blockchain</text>
  <text x="440" y="290" font-family="Arial, sans-serif" font-size="18" font-weight="bold" text-anchor="middle">Server</text>
  
  <!-- DAG -->
  <rect x="350" y="360" width="180" height="70" fill="#ffccbc" stroke="#ff5722" stroke-width="3" rx="10" />
  <text x="440" y="395" font-family="Arial, sans-serif" font-size="18" font-weight="bold" text-anchor="middle">DAG Storage</text>
  
  <!-- Transaction Flow -->
  <rect x="620" y="100" width="180" height="70" fill="#e1bee7" stroke="#9c27b0" stroke-width="3" rx="10" />
  <text x="710" y="135" font-family="Arial, sans-serif" font-size="18" font-weight="bold" text-anchor="middle">Client</text>
  <text x="710" y="160" font-family="Arial, sans-serif" font-size="14" text-anchor="middle">(Transaction Submitter)</text>
  
  <!-- Flow Arrows -->
  <!-- Client to Validator 1 -->
  <line x1="620" y1="135" x2="240" y2="135" stroke="#9c27b0" stroke-width="2" marker-end="url(#purpleArrow)" />
  <text x="430" y="120" font-family="Arial, sans-serif" font-size="14" fill="#9c27b0" text-anchor="middle">1. Submit Transaction</text>
  
  <!-- Validator 1 to Validator Coordinator -->
  <line x1="240" y1="135" x2="350" y2="135" stroke="#4caf50" stroke-width="2" marker-end="url(#greenArrow)" />
  
  <!-- Validator Coordinator to Validator 1 (approval) -->
  <path d="M 350 150 Q 290 180 240 150" fill="none" stroke="#2196f3" stroke-width="2" marker-end="url(#blueArrow)" />
  <text x="295" y="190" font-family="Arial, sans-serif" font-size="14" fill="#2196f3" text-anchor="middle">2. Confirm Turn</text>
  
  <!-- Validator 1 to Blockchain Server -->
  <line x1="170" y1="170" x2="350" y2="245" stroke="#4caf50" stroke-width="2" marker-end="url(#greenArrow)" />
  <text x="260" y="225" font-family="Arial, sans-serif" font-size="14" fill="#4caf50" text-anchor="middle">3. Process Transaction</text>
  
  <!-- Blockchain Server to DAG -->
  <line x1="440" y1="300" x2="440" y2="360" stroke="#ffc107" stroke-width="2" marker-end="url(#yellowArrow)" />
  <text x="520" y="330" font-family="Arial, sans-serif" font-size="14" fill="#ffc107" text-anchor="middle">4. Store in DAG</text>
  
  <!-- Blockchain Server to All Validators (broadcast) -->
  <path d="M 530 260 Q 600 260 600 200 Q 600 135 530 135" fill="none" stroke="#ffc107" stroke-width="2" marker-end="url(#yellowArrow)" stroke-dasharray="5,3" />
  <text x="660" y="200" font-family="Arial, sans-serif" font-size="14" fill="#ffc107" text-anchor="middle">5. Broadcast</text>
  <text x="660" y="220" font-family="Arial, sans-serif" font-size="14" fill="#ffc107" text-anchor="middle">Confirmation</text>
  
  <!-- Validator Coordinator to Validator 2 (next turn) -->
  <path d="M 350 165 Q 290 230 240 230" fill="none" stroke="#2196f3" stroke-width="2" stroke-dasharray="5,3" marker-end="url(#blueArrow)" />
  <text x="280" y="250" font-family="Arial, sans-serif" font-size="14" fill="#2196f3" text-anchor="middle">6. Next Turn</text>
  
  <!-- Arrowhead definitions -->
  <defs>
    <marker id="greenArrow" markerWidth="10" markerHeight="7" refX="9" refY="3.5" orient="auto">
      <polygon points="0 0, 10 3.5, 0 7" fill="#4caf50" />
    </marker>
    <marker id="blueArrow" markerWidth="10" markerHeight="7" refX="9" refY="3.5" orient="auto">
      <polygon points="0 0, 10 3.5, 0 7" fill="#2196f3" />
    </marker>
    <marker id="yellowArrow" markerWidth="10" markerHeight="7" refX="9" refY="3.5" orient="auto">
      <polygon points="0 0, 10 3.5, 0 7" fill="#ffc107" />
    </marker>
    <marker id="purpleArrow" markerWidth="10" markerHeight="7" refX="9" refY="3.5" orient="auto">
      <polygon points="0 0, 10 3.5, 0 7" fill="#9c27b0" />
    </marker>
  </defs>
  
  <!-- Legend -->
  <rect x="100" y="450" width="700" height="30" fill="white" stroke="#757575" stroke-width="1" rx="5" />
  
  <line x1="120" y1="465" x2="150" y2="465" stroke="#9c27b0" stroke-width="2" />
  <text x="200" y="470" font-family="Arial, sans-serif" font-size="12" fill="#333" text-anchor="middle">Client Request</text>
  
  <line x1="250" y1="465" x2="280" y2="465" stroke="#4caf50" stroke-width="2" />
  <text x="335" y="470" font-family="Arial, sans-serif" font-size="12" fill="#333" text-anchor="middle">Validator Action</text>
  
  <line x1="390" y1="465" x2="420" y2="465" stroke="#2196f3" stroke-width="2" />
  <text x="470" y="470" font-family="Arial, sans-serif" font-size="12" fill="#333" text-anchor="middle">Coordinator Signal</text>
  
  <line x1="520" y1="465" x2="550" y2="465" stroke="#ffc107" stroke-width="2" />
  <text x="605" y="470" font-family="Arial, sans-serif" font-size="12" fill="#333" text-anchor="middle">Server Processing</text>
  
  <line x1="660" y1="465" x2="690" y2="465" stroke="#757575" stroke-width="2" stroke-dasharray="5,3" />
  <text x="750" y="470" font-family="Arial, sans-serif" font-size="12" fill="#333" text-anchor="middle">Broadcast</text>
</svg>