<svg xmlns="http://www.w3.org/2000/svg" viewBox="0 0 800 600">
  <!-- Background -->
  <rect width="800" height="600" fill="#f8f9fa" />
  
  <!-- Title -->
  <text x="400" y="40" font-family="Arial, sans-serif" font-size="24" font-weight="bold" text-anchor="middle">Kylix SPARQL Query Processing Pipeline</text>
  
  <!-- Main Components -->
  <!-- 1. SparqlParser -->
  <rect x="100" y="100" width="200" height="120" fill="#bbdefb" stroke="#2196f3" stroke-width="2" rx="10" />
  <text x="200" y="125" font-family="Arial, sans-serif" font-size="18" font-weight="bold" text-anchor="middle" fill="#0d47a1">SparqlParser</text>
  
  <rect x="120" y="140" width="160" height="25" fill="#e3f2fd" stroke="#0d47a1" stroke-width="1" rx="5" />
  <text x="200" y="157" font-family="Arial, sans-serif" font-size="12" text-anchor="middle">parse()</text>
  
  <rect x="120" y="175" width="160" height="25" fill="#e3f2fd" stroke="#0d47a1" stroke-width="1" rx="5" />
  <text x="200" y="192" font-family="Arial, sans-serif" font-size="12" text-anchor="middle">parse_select_query()</text>
  
  <!-- 2. SparqlOptimizer -->
  <rect x="100" y="250" width="200" height="150" fill="#c8e6c9" stroke="#4caf50" stroke-width="2" rx="10" />
  <text x="200" y="275" font-family="Arial, sans-serif" font-size="18" font-weight="bold" text-anchor="middle" fill="#1b5e20">SparqlOptimizer</text>
  
  <rect x="120" y="290" width="160" height="25" fill="#e8f5e9" stroke="#1b5e20" stroke-width="1" rx="5" />
  <text x="200" y="307" font-family="Arial, sans-serif" font-size="12" text-anchor="middle">optimize()</text>
  
  <rect x="120" y="325" width="160" height="25" fill="#e8f5e9" stroke="#1b5e20" stroke-width="1" rx="5" />
  <text x="200" y="342" font-family="Arial, sans-serif" font-size="12" text-anchor="middle">reorder_triple_patterns()</text>
  
  <rect x="120" y="360" width="160" height="25" fill="#e8f5e9" stroke="#1b5e20" stroke-width="1" rx="5" />
  <text x="200" y="377" font-family="Arial, sans-serif" font-size="12" text-anchor="middle">push_filters()</text>
  
  <!-- 3. SparqlExecutor -->
  <rect x="100" y="430" width="200" height="150" fill="#ffecb3" stroke="#ffc107" stroke-width="2" rx="10" />
  <text x="200" y="455" font-family="Arial, sans-serif" font-size="18" font-weight="bold" text-anchor="middle" fill="#ff6f00">SparqlExecutor</text>
  
  <rect x="120" y="470" width="160" height="25" fill="#fff8e1" stroke="#ff6f00" stroke-width="1" rx="5" />
  <text x="200" y="487" font-family="Arial, sans-serif" font-size="12" text-anchor="middle">execute()</text>
  
  <rect x="120" y="505" width="160" height="25" fill="#fff8e1" stroke="#ff6f00" stroke-width="1" rx="5" />
  <text x="200" y="522" font-family="Arial, sans-serif" font-size="12" text-anchor="middle">execute_base_patterns()</text>
  
  <rect x="120" y="540" width="160" height="25" fill="#fff8e1" stroke="#ff6f00" stroke-width="1" rx="5" />
  <text x="200" y="557" font-family="Arial, sans-serif" font-size="12" text-anchor="middle">apply_filters()</text>
  
  <!-- 4. Variable Mapper -->
  <rect x="350" y="250" width="200" height="90" fill="#d1c4e9" stroke="#673ab7" stroke-width="2" rx="10" />
  <text x="450" y="275" font-family="Arial, sans-serif" font-size="18" font-weight="bold" text-anchor="middle" fill="#4527a0">VariableMapper</text>
  
  <rect x="370" y="290" width="160" height="25" fill="#ede7f6" stroke="#4527a0" stroke-width="1" rx="5" />
  <text x="450" y="307" font-family="Arial, sans-serif" font-size="12" text-anchor="middle">apply_mappings()</text>
  
  <!-- 5. SparqlAggregator -->
  <rect x="350" y="370" width="200" height="90" fill="#ffccbc" stroke="#ff5722" stroke-width="2" rx="10" />
  <text x="450" y="395" font-family="Arial, sans-serif" font-size="18" font-weight="bold" text-anchor="middle" fill="#d84315">SparqlAggregator</text>
  
  <rect x="370" y="410" width="160" height="25" fill="#fbe9e7" stroke="#d84315" stroke-width="1" rx="5" />
  <text x="450" y="427" font-family="Arial, sans-serif" font-size="12" text-anchor="middle">apply_aggregations()</text>
  
  <!-- 6. SparqlEngine (Main Entry Point) -->
  <rect x="350" y="100" width="200" height="120" fill="#f5f5f5" stroke="#616161" stroke-width="2" rx="10" />
  <text x="450" y="125" font-family="Arial, sans-serif" font-size="18" font-weight="bold" text-anchor="middle" fill="#212121">SparqlEngine</text>
  
  <rect x="370" y="140" width="160" height="25" fill="#eeeeee" stroke="#616161" stroke-width="1" rx="5" />
  <text x="450" y="157" font-family="Arial, sans-serif" font-size="12" text-anchor="middle">execute()</text>
  
  <rect x="370" y="175" width="160" height="25" fill="#eeeeee" stroke="#616161" stroke-width="1" rx="5" />
  <text x="450" y="192" font-family="Arial, sans-serif" font-size="12" text-anchor="middle">query_pattern()</text>
  
  <!-- 7. Storage Layer Connection -->
  <rect x="600" y="250" width="150" height="150" fill="#ffcdd2" stroke="#e57373" stroke-width="2" rx="10" />
  <text x="675" y="275" font-family="Arial, sans-serif" font-size="18" font-weight="bold" text-anchor="middle" fill="#c62828">DAG Storage</text>
  
  <rect x="615" y="300" width="120" height="30" fill="#ffebee" stroke="#c62828" stroke-width="1" rx="5" />
  <text x="675" y="320" font-family="Arial, sans-serif" font-size="12" text-anchor="middle">DAGEngine</text>
  
  <rect x="615" y="340" width="120" height="30" fill="#ffebee" stroke="#c62828" stroke-width="1" rx="5" />
  <text x="675" y="360" font-family="Arial, sans-serif" font-size="12" text-anchor="middle">Coordinator</text>
  
  <!-- Flow Lines -->
  <!-- SparqlEngine to SparqlParser -->
  <line x1="370" y1="160" x2="300" y2="160" stroke="#212121" stroke-width="2" marker-end="url(#grayArrow)" />
  <text x="340" y="150" font-family="Arial, sans-serif" font-size="12" fill="#616161" text-anchor="middle">1</text>
  
  <!-- SparqlParser to SparqlOptimizer -->
  <line x1="200" y1="220" x2="200" y2="250" stroke="#0d47a1" stroke-width="2" marker-end="url(#blueArrow)" />
  <text x="215" y="235" font-family="Arial, sans-serif" font-size="12" fill="#0d47a1" text-anchor="middle">2</text>
  
  <!-- SparqlOptimizer to SparqlExecutor -->
  <line x1="200" y1="400" x2="200" y2="430" stroke="#1b5e20" stroke-width="2" marker-end="url(#greenArrow)" />
  <text x="215" y="415" font-family="Arial, sans-serif" font-size="12" fill="#1b5e20" text-anchor="middle">3</text>
  
  <!-- SparqlExecutor to VariableMapper -->
  <line x1="300" y1="485" x2="450" y2="340" stroke="#ff6f00" stroke-width="2" marker-end="url(#yellowArrow)" />
  <text x="370" y="425" font-family="Arial, sans-serif" font-size="12" fill="#ff6f00" text-anchor="middle">5</text>
  
  <!-- SparqlExecutor to SparqlAggregator -->
  <line x1="300" y1="520" x2="370" y2="427" stroke="#ff6f00" stroke-width="2" marker-end="url(#yellowArrow)" />
  <text x="330" y="485" font-family="Arial, sans-serif" font-size="12" fill="#ff6f00" text-anchor="middle">6</text>
  
  <!-- SparqlExecutor to Storage -->
  <line x1="300" y1="505" x2="615" y2="325" stroke="#ff6f00" stroke-width="2" marker-end="url(#yellowArrow)" />
  <text x="450" y="450" font-family="Arial, sans-serif" font-size="12" fill="#ff6f00" text-anchor="middle">4. Query DAG</text>
  
  <!-- Results Back to SparqlEngine -->
  <line x1="300" y1="450" x2="370" y2="185" stroke="#ff6f00" stroke-width="2" marker-end="url(#yellowArrow)" />
  <text x="330" y="300" font-family="Arial, sans-serif" font-size="12" fill="#ff6f00" text-anchor="middle">7</text>
  
  <!-- Legend -->
  <rect x="600" y="430" width="150" height="150" fill="white" stroke="#757575" stroke-width="1" rx="5" />
  <text x="675" y="450" font-family="Arial, sans-serif" font-size="14" font-weight="bold" text-anchor="middle">Query Flow</text>
  
  <line x1="620" y1="470" x2="640" y2="470" stroke="#0d47a1" stroke-width="2" />
  <text x="690" y="475" font-family="Arial, sans-serif" font-size="12" text-anchor="middle">Parsing</text>
  
  <line x1="620" y1="495" x2="640" y2="495" stroke="#1b5e20" stroke-width="2" />
  <text x="690" y="500" font-family="Arial, sans-serif" font-size="12" text-anchor="middle">Optimization</text>
  
  <line x1="620" y1="520" x2="640" y2="520" stroke="#ff6f00" stroke-width="2" />
  <text x="690" y="525" font-family="Arial, sans-serif" font-size="12" text-anchor="middle">Execution</text>
  
  <line x1="620" y1="545" x2="640" y2="545" stroke="#4527a0" stroke-width="2" />
  <text x="690" y="550" font-family="Arial, sans-serif" font-size="12" text-anchor="middle">Result Formation</text>
  
  <!-- SPARQL Query Example -->
  <rect x="590" y="120" width="180" height="100" fill="#e0e0e0" stroke="#757575" stroke-width="1" rx="5" />
  <text x="610" y="140" font-family="Courier New, monospace" font-size="10" text-anchor="start" fill="#424242">SELECT ?s ?p ?o</text>
  <text x="610" y="155" font-family="Courier New, monospace" font-size="10" text-anchor="start" fill="#424242">WHERE {</text>
  <text x="610" y="170" font-family="Courier New, monospace" font-size="10" text-anchor="start" fill="#424242">  ?s "knows" ?o .</text>
  <text x="610" y="185" font-family="Courier New, monospace" font-size="10" text-anchor="start" fill="#424242">  FILTER(?s != "Dave")</text>
  <text x="610" y="200" font-family="Courier New, monospace" font-size="10" text-anchor="start" fill="#424242">}</text>
  
  <!-- Arrowhead definitions -->
  <defs>
    <marker id="blueArrow" markerWidth="10" markerHeight="7" refX="9" refY="3.5" orient="auto">
      <polygon points="0 0, 10 3.5, 0 7" fill="#0d47a1" />
    </marker>
    <marker id="greenArrow" markerWidth="10" markerHeight="7" refX="9" refY="3.5" orient="auto">
      <polygon points="0 0, 10 3.5, 0 7" fill="#1b5e20" />
    </marker>
    <marker id="yellowArrow" markerWidth="10" markerHeight="7" refX="9" refY="3.5" orient="auto">
      <polygon points="0 0, 10 3.5, 0 7" fill="#ff6f00" />
    </marker>
    <marker id="purpleArrow" markerWidth="10" markerHeight="7" refX="9" refY="3.5" orient="auto">
      <polygon points="0 0, 10 3.5, 0 7" fill="#4527a0" />
    </marker>
    <marker id="grayArrow" markerWidth="10" markerHeight="7" refX="9" refY="3.5" orient="auto">
      <polygon points="0 0, 10 3.5, 0 7" fill="#616161" />
    </marker>
  </defs>
</svg>